<?xml version="1.0" encoding="us-ascii" standalone="no"?><svg xmlns="http://www.w3.org/2000/svg" xmlns:xlink="http://www.w3.org/1999/xlink" contentStyleType="text/css" height="1086px" preserveAspectRatio="none" style="width:2556px;height:1086px;background:#FFFFFF;" version="1.1" viewBox="0 0 2556 1086" width="2556px" zoomAndPan="magnify"><defs/><g><!--class Boat--><g id="elem_Boat"><rect codeLine="42" fill="#F1F1F1" height="132.0781" id="Boat" rx="2.5" ry="2.5" style="stroke:#181818;stroke-width:0.5;" width="294" x="245" y="803.61"/><text fill="#000000" font-family="sans-serif" font-size="14" lengthAdjust="spacing" textLength="32" x="376" y="821.6051">Boat</text><line style="stroke:#181818;stroke-width:0.5;" x1="246" x2="538" y1="829.9069" y2="829.9069"/><text fill="#000000" font-family="sans-serif" font-size="14" lengthAdjust="spacing" textLength="282" x="251" y="846.902">+Boat(name: std::string, current: Bank*)</text><text fill="#000000" font-family="sans-serif" font-size="14" lengthAdjust="spacing" textLength="202" x="251" y="863.1989">+toString_const(): std::string</text><text fill="#000000" font-family="sans-serif" font-size="14" lengthAdjust="spacing" textLength="247" x="251" y="879.4957">+setNewBank(current: Bank*): void</text><text fill="#000000" font-family="sans-serif" font-size="14" lengthAdjust="spacing" textLength="229" x="251" y="895.7926">+getCurrentBank_const(): Bank*</text><text fill="#000000" font-family="sans-serif" font-size="14" lengthAdjust="spacing" textLength="169" x="251" y="912.0895">+canMove_const(): bool</text><text fill="#000000" font-family="sans-serif" font-size="14" lengthAdjust="spacing" text-decoration="underline" textLength="204" x="251" y="928.3864">+getMaxCapacity(): unsigned</text></g><!--class Bank--><g id="elem_Bank"><rect codeLine="38" fill="#F1F1F1" height="50.5938" id="Bank" rx="2.5" ry="2.5" style="stroke:#181818;stroke-width:0.5;" width="188" x="298" y="631.28"/><text fill="#000000" font-family="sans-serif" font-size="14" lengthAdjust="spacing" textLength="35" x="374.5" y="649.2751">Bank</text><line style="stroke:#181818;stroke-width:0.5;" x1="299" x2="485" y1="657.5769" y2="657.5769"/><text fill="#000000" font-family="sans-serif" font-size="14" lengthAdjust="spacing" textLength="176" x="304" y="674.572">+Bank(name: std::string)</text></g><!--class Child--><g id="elem_Child"><rect codeLine="56" fill="#F1F1F1" height="66.8906" id="Child" rx="2.5" ry="2.5" style="stroke:#181818;stroke-width:0.5;" width="656" x="1186" y="836.21"/><text fill="#000000" font-family="sans-serif" font-size="14" lengthAdjust="spacing" textLength="34" x="1497" y="854.2051">Child</text><line style="stroke:#181818;stroke-width:0.5;" x1="1187" x2="1841" y1="862.5069" y2="862.5069"/><text fill="#000000" font-family="sans-serif" font-size="14" lengthAdjust="spacing" textLength="644" x="1192" y="879.502">+Child(name: std::string, main: std::shared_ptr&lt;Parent&gt;, second: std::shared_ptr&lt;Parent&gt;)</text><text fill="#000000" font-family="sans-serif" font-size="14" lengthAdjust="spacing" textLength="454" x="1192" y="895.7989">#parentsPresenceValid_const(container: const Container&amp;): bool</text></g><!--class Parent--><g id="elem_Parent"><rect codeLine="98" fill="#F1F1F1" height="66.8906" id="Parent" rx="2.5" ry="2.5" style="stroke:#181818;stroke-width:0.5;" width="179" x="998.5" y="1012.69"/><text fill="#000000" font-family="sans-serif" font-size="14" lengthAdjust="spacing" textLength="45" x="1065.5" y="1030.6851">Parent</text><line style="stroke:#181818;stroke-width:0.5;" x1="999.5" x2="1176.5" y1="1038.9869" y2="1038.9869"/><text fill="#000000" font-family="sans-serif" font-size="14" lengthAdjust="spacing" textLength="138" x="1004.5" y="1055.982">+Parent(std::string)</text><text fill="#000000" font-family="sans-serif" font-size="14" lengthAdjust="spacing" textLength="167" x="1004.5" y="1072.2789">+canDrive_const(): bool</text></g><!--class Container--><g id="elem_Container"><rect codeLine="61" fill="#F1F1F1" height="221.5625" id="Container" rx="2.5" ry="2.5" style="stroke:#181818;stroke-width:0.5;" width="478" x="7" y="272.97"/><text fill="#000000" font-family="sans-serif" font-size="14" lengthAdjust="spacing" textLength="67" x="212.5" y="290.9651">Container</text><line style="stroke:#181818;stroke-width:0.5;" x1="8" x2="484" y1="299.2669" y2="299.2669"/><text fill="#000000" font-family="sans-serif" font-size="14" lengthAdjust="spacing" textLength="131" x="13" y="316.262">-_name: std::string</text><line style="stroke:#181818;stroke-width:0.5;" x1="8" x2="484" y1="323.5637" y2="323.5637"/><text fill="#000000" font-family="sans-serif" font-size="14" lengthAdjust="spacing" textLength="208" x="13" y="340.5589">+Container(name: std::string)</text><text fill="#000000" font-family="sans-serif" font-size="14" lengthAdjust="spacing" textLength="164" x="13" y="356.8557">+isValid_const(): Result</text><text fill="#000000" font-family="sans-serif" font-size="14" lengthAdjust="spacing" textLength="294" x="13" y="373.1526">+add(p: std::shared_ptr&lt;Person&gt;&amp;): void</text><text fill="#000000" font-family="sans-serif" font-size="14" lengthAdjust="spacing" textLength="320" x="13" y="389.4495">+remove(p: std::shared_ptr&lt;Person&gt;&amp;): void</text><text fill="#000000" font-family="sans-serif" font-size="14" lengthAdjust="spacing" textLength="466" x="13" y="405.7464">+findByName(name: const std::string&amp;): std::shared_ptr&lt;Person&gt;</text><text fill="#000000" font-family="sans-serif" font-size="14" lengthAdjust="spacing" textLength="201" x="13" y="422.0432">+getSize_const(): std::size_t</text><text fill="#000000" font-family="sans-serif" font-size="14" lengthAdjust="spacing" textLength="419" x="13" y="438.3401">+contains_const(searched: std::shared_ptr&lt;Person&gt;): bool</text><text fill="#000000" font-family="sans-serif" font-size="14" lengthAdjust="spacing" textLength="202" x="13" y="454.637">+toString_const(): std::string</text><text fill="#000000" font-family="sans-serif" font-size="14" lengthAdjust="spacing" textLength="441" x="13" y="470.9339">#getOccupants_const(): std::list&lt;std::shared_ptr&lt;Person&gt;&gt;&amp;</text><text fill="#000000" font-family="sans-serif" font-size="14" lengthAdjust="spacing" textLength="225" x="13" y="487.2307">#listToString_const(): std::string</text></g><!--class Person--><g id="elem_Person"><rect codeLine="103" fill="#F1F1F1" height="140.0781" id="Person" rx="2.5" ry="2.5" style="stroke:#181818;stroke-width:0.5;" width="372" x="682" y="586.53"/><text fill="#000000" font-family="sans-serif" font-size="14" lengthAdjust="spacing" textLength="49" x="843.5" y="604.5251">Person</text><line style="stroke:#181818;stroke-width:0.5;" x1="683" x2="1053" y1="612.8269" y2="612.8269"/><text fill="#000000" font-family="sans-serif" font-size="14" lengthAdjust="spacing" textLength="124" x="688" y="629.822">-name: std::string</text><line style="stroke:#181818;stroke-width:0.5;" x1="683" x2="1053" y1="637.1238" y2="637.1238"/><text fill="#000000" font-family="sans-serif" font-size="14" lengthAdjust="spacing" textLength="190" x="688" y="654.1189">+Person(name: std::string)</text><text fill="#000000" font-family="sans-serif" font-size="14" lengthAdjust="spacing" textLength="83" x="688" y="670.4157">+~Person()</text><text fill="#000000" font-family="sans-serif" font-size="14" lengthAdjust="spacing" textLength="167" x="688" y="686.7126">+canDrive_const(): bool</text><text fill="#000000" font-family="sans-serif" font-size="14" lengthAdjust="spacing" textLength="360" x="688" y="703.0095">+isValid_const(container: const Container&amp;): Result</text><text fill="#000000" font-family="sans-serif" font-size="14" lengthAdjust="spacing" textLength="211" x="688" y="719.3064">+getName_const(): std::string</text></g><g id="elem_ci1"><path d="M1139,88.92 L1139,114.0528 L1307,114.0528 L1307,98.92 L1297,88.92 L1139,88.92 " fill="#FEFFDD" style="stroke:#181818;stroke-width:0.5;"/><path d="M1297,88.92 L1297,98.92 L1307,98.92 L1297,88.92 " fill="#FEFFDD" style="stroke:#181818;stroke-width:1.0;"/><text fill="#000000" font-family="sans-serif" font-size="13" lengthAdjust="spacing" textLength="147" x="1145" y="105.9869">CI: Boat only 2 persons</text></g><!--class Controller--><g id="elem_Controller"><rect codeLine="75" fill="#F1F1F1" height="205.2656" id="Controller" rx="2.5" ry="2.5" style="stroke:#181818;stroke-width:0.5;" width="677" x="520.5" y="281.12"/><text fill="#000000" font-family="sans-serif" font-size="14" lengthAdjust="spacing" textLength="67" x="825.5" y="299.1151">Controller</text><line style="stroke:#181818;stroke-width:0.5;" x1="521.5" x2="1196.5" y1="307.4169" y2="307.4169"/><text fill="#000000" font-family="sans-serif" font-size="14" lengthAdjust="spacing" text-decoration="underline" textLength="130" x="526.5" y="324.412">-LEFT: const size_t</text><text fill="#000000" font-family="sans-serif" font-size="14" lengthAdjust="spacing" text-decoration="underline" textLength="140" x="526.5" y="340.7089">-RIGHT: const size_t</text><line style="stroke:#181818;stroke-width:0.5;" x1="521.5" x2="1196.5" y1="348.0106" y2="348.0106"/><text fill="#000000" font-family="sans-serif" font-size="14" lengthAdjust="spacing" textLength="566" x="526.5" y="365.0057">-movePerson(name: const std::string&amp;, from: Container&amp;, to: Container&amp;): Result</text><text fill="#000000" font-family="sans-serif" font-size="14" lengthAdjust="spacing" textLength="665" x="526.5" y="381.3026">-personNotFoundMessage_const(name: const std::string&amp;, from: const Container&amp;): std::string</text><text fill="#000000" font-family="sans-serif" font-size="14" lengthAdjust="spacing" textLength="82" x="526.5" y="397.5995">-Controller()</text><text fill="#000000" font-family="sans-serif" font-size="14" lengthAdjust="spacing" textLength="192" x="526.5" y="413.8964">+getInstance(): Controller&amp;</text><text fill="#000000" font-family="sans-serif" font-size="14" lengthAdjust="spacing" textLength="301" x="526.5" y="430.1932">+embark(name: const std::string&amp;): Result</text><text fill="#000000" font-family="sans-serif" font-size="14" lengthAdjust="spacing" textLength="321" x="526.5" y="446.4901">+disembark(name: const std::string&amp;): Result</text><text fill="#000000" font-family="sans-serif" font-size="14" lengthAdjust="spacing" textLength="145" x="526.5" y="462.787">+moveBoat(): Result</text><text fill="#000000" font-family="sans-serif" font-size="14" lengthAdjust="spacing" textLength="90" x="526.5" y="479.0839">+print(): void</text></g><!--class Thief--><g id="elem_Thief"><rect codeLine="132" fill="#F1F1F1" height="66.8906" id="Thief" rx="2.5" ry="2.5" style="stroke:#181818;stroke-width:0.5;" width="372" x="687" y="836.21"/><text fill="#000000" font-family="sans-serif" font-size="14" lengthAdjust="spacing" textLength="34" x="856" y="854.2051">Thief</text><line style="stroke:#181818;stroke-width:0.5;" x1="688" x2="1058" y1="862.5069" y2="862.5069"/><text fill="#000000" font-family="sans-serif" font-size="14" lengthAdjust="spacing" textLength="333" x="693" y="879.502">+Thief(name: std::string, designatedCop: Cop*)</text><text fill="#000000" font-family="sans-serif" font-size="14" lengthAdjust="spacing" textLength="360" x="693" y="895.7989">+isValid_const(container: const Container&amp;): Result</text></g><!--class Cop--><g id="elem_Cop"><rect codeLine="88" fill="#F1F1F1" height="66.8906" id="Cop" rx="2.5" ry="2.5" style="stroke:#181818;stroke-width:0.5;" width="179" x="676.5" y="1012.69"/><text fill="#000000" font-family="sans-serif" font-size="14" lengthAdjust="spacing" textLength="28" x="752" y="1030.6851">Cop</text><line style="stroke:#181818;stroke-width:0.5;" x1="677.5" x2="854.5" y1="1038.9869" y2="1038.9869"/><text fill="#000000" font-family="sans-serif" font-size="14" lengthAdjust="spacing" textLength="121" x="682.5" y="1055.982">+Cop(std::string)</text><text fill="#000000" font-family="sans-serif" font-size="14" lengthAdjust="spacing" textLength="167" x="682.5" y="1072.2789">+canDrive_const(): bool</text></g><!--class RiverGame--><g id="elem_RiverGame"><rect codeLine="121" fill="#F1F1F1" height="188.9688" id="RiverGame" rx="2.5" ry="2.5" style="stroke:#181818;stroke-width:0.5;" width="489" x="614.5" y="7"/><text fill="#000000" font-family="sans-serif" font-size="14" lengthAdjust="spacing" textLength="75" x="821.5" y="24.9951">RiverGame</text><line style="stroke:#181818;stroke-width:0.5;" x1="615.5" x2="1102.5" y1="33.2969" y2="33.2969"/><text fill="#000000" font-family="sans-serif" font-size="14" lengthAdjust="spacing" textLength="122" x="620.5" y="50.292">-_shouldExit: bool</text><text fill="#000000" font-family="sans-serif" font-size="14" lengthAdjust="spacing" textLength="92" x="620.5" y="66.5889">-_prompt : int</text><text fill="#000000" font-family="sans-serif" font-size="14" lengthAdjust="spacing" textLength="121" x="620.5" y="82.8857">-_gameWon: bool</text><line style="stroke:#181818;stroke-width:0.5;" x1="615.5" x2="1102.5" y1="90.1875" y2="90.1875"/><text fill="#000000" font-family="sans-serif" font-size="14" lengthAdjust="spacing" textLength="477" x="620.5" y="107.1826">-std::unordered_map&lt;char, std::function&lt;void(std::string param)&gt;&gt;</text><text fill="#000000" font-family="sans-serif" font-size="14" lengthAdjust="spacing" text-decoration="underline" textLength="344" x="620.5" y="123.4795">-logResultErrorIfFailed(result: const Result&amp;): void</text><text fill="#000000" font-family="sans-serif" font-size="14" lengthAdjust="spacing" text-decoration="underline" textLength="128" x="620.5" y="139.7764">-showMenu(): void</text><text fill="#000000" font-family="sans-serif" font-size="14" lengthAdjust="spacing" textLength="97" x="620.5" y="156.0732">+RiverGame()</text><text fill="#000000" font-family="sans-serif" font-size="14" lengthAdjust="spacing" textLength="82" x="620.5" y="172.3701">+run(): void</text><text fill="#000000" font-family="sans-serif" font-size="14" lengthAdjust="spacing" textLength="109" x="620.5" y="188.667">+~RiverGame()</text></g><!--class Boy--><g id="elem_Boy"><rect codeLine="51" fill="#F1F1F1" height="66.8906" id="Boy" rx="2.5" ry="2.5" style="stroke:#181818;stroke-width:0.5;" width="653" x="1896.5" y="1012.69"/><text fill="#000000" font-family="sans-serif" font-size="14" lengthAdjust="spacing" textLength="26" x="2210" y="1030.6851">Boy</text><line style="stroke:#181818;stroke-width:0.5;" x1="1897.5" x2="2548.5" y1="1038.9869" y2="1038.9869"/><text fill="#000000" font-family="sans-serif" font-size="14" lengthAdjust="spacing" textLength="641" x="1902.5" y="1055.982">+Boy(name: std::string, mother: std::shared_ptr&lt;Parent&gt;, father: std::shared_ptr&lt;Parent&gt;)</text><text fill="#000000" font-family="sans-serif" font-size="14" lengthAdjust="spacing" textLength="360" x="1902.5" y="1072.2789">+isValid_const(container: const Container&amp;): Result</text></g><!--class Girl--><g id="elem_Girl"><rect codeLine="93" fill="#F1F1F1" height="66.8906" id="Girl" rx="2.5" ry="2.5" style="stroke:#181818;stroke-width:0.5;" width="649" x="1212.5" y="1012.69"/><text fill="#000000" font-family="sans-serif" font-size="14" lengthAdjust="spacing" textLength="22" x="1526" y="1030.6851">Girl</text><line style="stroke:#181818;stroke-width:0.5;" x1="1213.5" x2="1860.5" y1="1038.9869" y2="1038.9869"/><text fill="#000000" font-family="sans-serif" font-size="14" lengthAdjust="spacing" textLength="637" x="1218.5" y="1055.982">+Girl(name: std::string, mother: std::shared_ptr&lt;Parent&gt;, father: std::shared_ptr&lt;Parent&gt;)</text><text fill="#000000" font-family="sans-serif" font-size="14" lengthAdjust="spacing" textLength="360" x="1218.5" y="1072.2789">+isValid_const(container: const Container&amp;): Result</text></g><!--class Result--><g id="elem_Result"><rect codeLine="112" fill="#F1F1F1" height="140.0781" id="Result" rx="2.5" ry="2.5" style="stroke:#181818;stroke-width:0.5;" width="306" x="1342" y="31.45"/><text fill="#000000" font-family="sans-serif" font-size="14" lengthAdjust="spacing" textLength="44" x="1473" y="49.4451">Result</text><line style="stroke:#181818;stroke-width:0.5;" x1="1343" x2="1647" y1="57.7469" y2="57.7469"/><text fill="#000000" font-family="sans-serif" font-size="14" lengthAdjust="spacing" textLength="294" x="1348" y="74.742">+reason: const std::optional&lt;std::string&gt;</text><text fill="#000000" font-family="sans-serif" font-size="14" lengthAdjust="spacing" textLength="137" x="1348" y="91.0389">+status: const bool</text><line style="stroke:#181818;stroke-width:0.5;" x1="1343" x2="1647" y1="98.3406" y2="98.3406"/><text fill="#000000" font-family="sans-serif" font-size="14" lengthAdjust="spacing" textLength="187" x="1348" y="115.3357">-Result(reason: std::string)</text><text fill="#000000" font-family="sans-serif" font-size="14" lengthAdjust="spacing" textLength="59" x="1348" y="131.6326">-Result()</text><text fill="#000000" font-family="sans-serif" font-size="14" lengthAdjust="spacing" text-decoration="underline" textLength="245" x="1348" y="147.9295">+invalid(reason: std::string): Result</text><text fill="#000000" font-family="sans-serif" font-size="14" lengthAdjust="spacing" text-decoration="underline" textLength="136" x="1348" y="164.2264">+correct(): Result&amp;</text></g><!--reverse link Bank to Boat--><g id="link_Bank_Boat"><path codeLine="11" d="M392,688.2 C392,717.67 392,762.18 392,803.2 " fill="none" id="Bank-backto-Boat" style="stroke:#181818;stroke-width:1.0;"/><polygon fill="#181818" points="392,682.2,388,691.2,392,687.2,396,691.2,392,682.2" style="stroke:#181818;stroke-width:1.0;"/><polygon fill="#000000" points="397,760.1764,394.0611,769.2215,399.9389,769.2215,397,760.1764" style="stroke:#000000;stroke-width:1.0;"/><text fill="#000000" font-family="sans-serif" font-size="13" lengthAdjust="spacing" textLength="81" x="406" y="769.6769">is moored to</text></g><!--link Child to Parent--><g id="link_Child_Parent"><path codeLine="12" d="M1411.68,903.58 C1361.22,920.66 1299.81,942.73 1246,965.69 C1213.24,979.67 1183.0541,994.5234 1154.0141,1009.6134 " fill="none" id="Child-to-Parent" style="stroke:#181818;stroke-width:1.0;"/><polygon fill="#181818" points="1148.69,1012.38,1158.5205,1011.7796,1153.1268,1010.0745,1154.8318,1004.6808,1148.69,1012.38" style="stroke:#181818;stroke-width:1.0;"/><text fill="#000000" font-family="sans-serif" font-size="13" lengthAdjust="spacing" textLength="270" x="1247" y="978.7569">main, second : std::shared_ptr&lt;Parent&gt;&gt;</text><text fill="#000000" font-family="sans-serif" font-size="13" lengthAdjust="spacing" textLength="7" x="1385.1694" y="923.2968">*</text><text fill="#000000" font-family="sans-serif" font-size="13" lengthAdjust="spacing" textLength="8" x="1151.4965" y="1001.5953">2</text></g><!--link Container to Person--><g id="link_Container_Person"><path codeLine="13" d="M485.15,488.88 C559.96,521.45 635.149,554.1843 703.069,583.7643 " fill="none" id="Container-to-Person" style="stroke:#181818;stroke-width:1.0;"/><polygon fill="#181818" points="708.57,586.16,701.9157,578.8991,703.9859,584.1636,698.7214,586.2337,708.57,586.16" style="stroke:#181818;stroke-width:1.0;"/><polygon fill="#000000" points="631.4157,538.6004,638.5355,544.9058,640.882,539.5167,631.4157,538.6004" style="stroke:#000000;stroke-width:1.0;"/><text fill="#000000" font-family="sans-serif" font-size="13" lengthAdjust="spacing" textLength="85" x="645" y="545.0969">is currently in</text><text fill="#000000" font-family="sans-serif" font-size="13" lengthAdjust="spacing" textLength="8" x="493.1284" y="489.1525">1</text><text fill="#000000" font-family="sans-serif" font-size="13" lengthAdjust="spacing" textLength="7" x="685.5316" y="575.5643">*</text></g><!--reverse link Controller to Bank--><g id="link_Controller_Bank"><path codeLine="15" d="M518.3823,490.1636 C509.3223,492.7836 511.87,492.02 503,494.53 C451.77,509.05 419.6,482.43 387,524.53 C363.44,554.96 373.17,602.32 382.5,631 " fill="none" id="Controller-backto-Bank" style="stroke:#181818;stroke-width:1.0;"/><polygon fill="#181818" points="529.91,486.83,523.035,484.6542,518.3823,490.1636,525.2574,492.3394,529.91,486.83" style="stroke:#181818;stroke-width:1.0;"/><text fill="#000000" font-family="sans-serif" font-size="13" lengthAdjust="spacing" textLength="38" x="388" y="545.0969">banks</text><text fill="#000000" font-family="sans-serif" font-size="13" lengthAdjust="spacing" textLength="8" x="371.2094" y="620.0206">2</text></g><!--reverse link Controller to Boat--><g id="link_Controller_Boat"><path codeLine="16" d="M726.2702,494.8214 C691.7702,525.4814 664.2,552.16 633,586.53 C563.74,662.84 564.82,696.9 496,773.61 C487.1,783.53 477.27,793.54 467.32,803.14 " fill="none" id="Controller-backto-Boat" style="stroke:#181818;stroke-width:1.0;"/><polygon fill="#181818" points="735.24,486.85,728.098,487.8458,726.2702,494.8214,733.4122,493.8256,735.24,486.85" style="stroke:#181818;stroke-width:1.0;"/><text fill="#000000" font-family="sans-serif" font-size="13" lengthAdjust="spacing" textLength="29" x="634" y="661.1369">boat</text><text fill="#000000" font-family="sans-serif" font-size="13" lengthAdjust="spacing" textLength="8" x="466.6749" y="792.5816">1</text></g><!--reverse link Controller to Person--><g id="link_Controller_Person"><path codeLine="17" d="M862.7881,498.7434 C863.8881,531.8834 864.69,555.87 865.69,586.07 " fill="none" id="Controller-backto-Person" style="stroke:#181818;stroke-width:1.0;"/><polygon fill="#181818" points="862.39,486.75,858.5912,492.8794,862.7881,498.7434,866.5868,492.614,862.39,486.75" style="stroke:#181818;stroke-width:1.0;"/><text fill="#000000" font-family="sans-serif" font-size="13" lengthAdjust="spacing" textLength="151" x="871.5" y="537.5969">pere, mere,julie,jeanne,</text><text fill="#000000" font-family="sans-serif" font-size="13" lengthAdjust="spacing" textLength="164" x="865" y="552.7297">pierre, paul,voleur,policier</text><text fill="#000000" font-family="sans-serif" font-size="13" lengthAdjust="spacing" textLength="8" x="857.0689" y="575.4654">1</text></g><!--link Thief to Cop--><g id="link_Thief_Cop"><path codeLine="18" d="M852.87,903.47 C833.74,934.66 808.2771,976.2054 789.1771,1007.3454 " fill="none" id="Thief-to-Cop" style="stroke:#181818;stroke-width:1.0;"/><polygon fill="#181818" points="786.04,1012.46,794.1553,1006.8795,788.6542,1008.1979,787.3359,1002.6968,786.04,1012.46" style="stroke:#181818;stroke-width:1.0;"/><polygon fill="#000000" points="815.3864,978.5189,822.6199,972.3442,817.609,969.2717,815.3864,978.5189" style="stroke:#000000;stroke-width:1.0;"/><text fill="#000000" font-family="sans-serif" font-size="13" lengthAdjust="spacing" textLength="96" x="827" y="978.7569">designatedCop</text></g><!--link RiverGame to Controller--><g id="link_RiverGame_Controller"><path codeLine="19" d="M859,196.2 C859,223.41 859,247.26 859,274.94 " fill="none" id="RiverGame-to-Controller" style="stroke:#181818;stroke-width:1.0;"/><polygon fill="#181818" points="859,280.94,863,271.94,859,275.94,855,271.94,859,280.94" style="stroke:#181818;stroke-width:1.0;"/><polygon fill="#000000" points="864,239.5364,866.9389,230.4913,861.0611,230.4913,864,239.5364" style="stroke:#000000;stroke-width:1.0;"/><text fill="#000000" font-family="sans-serif" font-size="13" lengthAdjust="spacing" textLength="51" x="873" y="239.0369">controls</text></g><!--reverse link Child to Boy--><g id="link_Child_Boy"><path codeLine="143" d="M1665.2485,907.8715 C1791.6585,938.9815 1962.78,981.09 2089.2,1012.21 " fill="none" id="Child-backto-Boy" style="stroke:#181818;stroke-width:1.0;"/><polygon fill="none" points="1647.77,903.57,1663.8146,913.6977,1666.6823,902.0454,1647.77,903.57" style="stroke:#181818;stroke-width:1.0;"/></g><!--reverse link Child to Girl--><g id="link_Child_Girl"><path codeLine="145" d="M1520.6816,921.3157 C1524.7916,952.5057 1528.59,981.32 1532.69,1012.46 " fill="none" id="Child-backto-Girl" style="stroke:#181818;stroke-width:1.0;"/><polygon fill="none" points="1518.33,903.47,1514.733,922.0996,1526.6302,920.5319,1518.33,903.47" style="stroke:#181818;stroke-width:1.0;"/></g><!--reverse link Container to Bank--><g id="link_Container_Bank"><path codeLine="147" d="M313.9219,510.7441 C341.0019,560.9741 362.13,600.17 378.77,631.03 " fill="none" id="Container-backto-Bank" style="stroke:#181818;stroke-width:1.0;"/><polygon fill="none" points="305.38,494.9,308.6405,513.5914,319.2033,507.8968,305.38,494.9" style="stroke:#181818;stroke-width:1.0;"/></g><!--reverse link Container to Boat--><g id="link_Container_Boat"><path codeLine="149" d="M242.2451,512.6876 C243.3751,581.6076 251.37,653 281,726.61 C292.04,754.05 310.06,780.58 328.39,803.14 " fill="none" id="Container-backto-Boat" style="stroke:#181818;stroke-width:1.0;"/><polygon fill="none" points="241.95,494.69,236.2459,512.7859,248.2443,512.5892,241.95,494.69" style="stroke:#181818;stroke-width:1.0;"/></g><!--reverse link Person to Child--><g id="link_Person_Child"><path codeLine="151" d="M1071.5296,724.0711 C1188.5496,762.3111 1317.78,804.54 1413.47,835.8 " fill="none" id="Person-backto-Child" style="stroke:#181818;stroke-width:1.0;"/><polygon fill="none" points="1054.42,718.48,1069.6659,729.7743,1073.3933,718.3679,1054.42,718.48" style="stroke:#181818;stroke-width:1.0;"/></g><!--reverse link Person to Cop--><g id="link_Person_Cop"><path codeLine="153" d="M722.0781,737.9287 C694.9881,758.7487 684.35,773.31 669,803.61 C642.48,855.98 648.18,880.8 669,935.69 C680.35,965.6 704.02,992.58 725.14,1012.27 " fill="none" id="Person-backto-Cop" style="stroke:#181818;stroke-width:1.0;"/><polygon fill="none" points="736.35,726.96,718.4218,733.1714,725.7343,742.686,736.35,726.96" style="stroke:#181818;stroke-width:1.0;"/></g><!--reverse link Person to Parent--><g id="link_Person_Parent"><path codeLine="155" d="M1020.427,737.5995 C1048.607,758.3395 1060.24,773.17 1077,803.61 C1113.64,870.17 1103.97,963.34 1095.15,1012.23 " fill="none" id="Person-backto-Parent" style="stroke:#181818;stroke-width:1.0;"/><polygon fill="none" points="1005.93,726.93,1016.8704,742.4318,1023.9835,732.7672,1005.93,726.93" style="stroke:#181818;stroke-width:1.0;"/></g><!--reverse link Person to Thief--><g id="link_Person_Thief"><path codeLine="157" d="M870.0672,744.9749 C870.9372,781.6249 871.54,806.89 872.22,835.88 " fill="none" id="Person-backto-Thief" style="stroke:#181818;stroke-width:1.0;"/><polygon fill="none" points="869.64,726.98,864.0689,745.1173,876.0655,744.8325,869.64,726.98" style="stroke:#181818;stroke-width:1.0;"/></g><!--SRC=[pLVTRzis47-U_WhE1H8xivgbZu8He74-Pg19YiJeNe8Qj7IssKWaGL9flAxzstT7IhBaE6cxlImFWipxuE_kVdUwxBFRwTlfP1pjimkGOBY3ZCtNR3nzpsAsSaxRvF1mATogdBzELN5eUL52RbJEPNQOEXsXvQrRvn2jH0OC2ktMh81Y3iQ6erIO5CNsNaZD3IzOcdDhtpfdnBnqC4cLl1L_0VkTNBtDCk64aZQAJXHtB2vrVCnEkBnFcB2iKCeWGAVOSJHUYJnZlODU71_ttlJOUsv0keGLNCWXiu1-CvOmwx8aiIiKPZFjp2Ye7QEzaWvLmR3UaVTnW3uGjPB-ghGqf9YlcP2CZIAf7B3UU98m3qn9bBnXsXlO7kDe8OwyKqnEZbuFufXW1UnpVDfjwL7F-q8fFdS8QpHu2GmngVZyLEO2dy2bXE6Tr08CoJGly-63og4qGwroaU9vD5q9M32CZ8sLJbW6LYmb5HX_Olvkn0EO2rv0fLBVdh0ql5jKsfzUdrxJIQ5pm0HWrTb2FBAF7siHpp8sdh1VgNgdmc3rIJw7b9SMc5gmvfxNCvxwsY9SOuLSCWIlJEJvi55ZNw9Vub2sKYgJ0LMku7gKOX67GR0efNSrUb0YwuSI8v_GfQVO0ClxbG3Td5rUVpZ3bvXrJExwNk_rmPr4uTdLQTK5_c-VNSy_GUgGWm4QbP1G_URV-X91rhpobmxeiagLk15KyUsfwh3cLU9z7Gn8rQbRBvnXugth3peMf631NS5dV_cMUS8e7D9PWXi76KashhmUAQHSNge7s4ZcIkKa-68TToBzIYuk-UEOQvuAjoQLKX9d86i7kAxZM-yAhr1kHHnwfks6RC5VLF094VO3pqLMGKthHlNCj8urdRk746_0bhdR00nZmKFqhpj1elKB4CFiU0dYA-8Pljlt1Yp857uShy_w1cqpX3phPq_0-ZXgfLtKUvAkJKvGXDtPrpiYyPFbUA_57mC5ikC7bHT2PYVhAqHJGGg1je3j3PvrLB6LXlusu-d8uwvoQ2i52zoaAyYUzTcYytUwwHNTVPscfUPOlosbN5WtUkQAupqo9etfYpTqQbiDT5_Sfi_UdPrFcvHL8RV4DvEBFtR8gJm1ohCvn-uogaXQX1jYEfAT3OCUmyVhIhbpLShi4gpboxeatxjY1xCxQOvRuVS7LSadQCEnMoXb6_4UIN5ZuER-9JPjI9q9-pFgb3W_ZJkd6XNzaUTqgsYw6XvAzxSR3KVegH5FPcXZV25C7gpfxNyv7eEV03Ay_tIKWOI1qpldLOUbszw_LTANhlftCGQEqL3wJcC6_P030zplM2qEAKrx0iz7BMC_jAX1Irlh1gHnvQrVE-h6suW7dI-ja0yKtKwZTZoDGQhmqvwsABpN2gUxEStiIfLvTlOeNDA0d6diMkrm7qRM-uCb6ln9TzSgpLsvMeOxpcWzcopEkSY1iD9P7Ns5elacjEpn_i-N8Cj-wuFHO0o9CALiIx-rnKrSON_z4f66Vz_LK9sjbgQAFlWFFUAtlud43XH-K24zSkvtrfNGk0-6vMBqTnpJ_jFvJHqVjVwf24guV3qzf6q_ghh8dtWtMqTATmz2itRFV5QYg5vRhy3Ils-gtbxfxDm0DBkl_GS0]--></g></svg>