<?xml version="1.0" encoding="us-ascii" standalone="no"?><svg xmlns="http://www.w3.org/2000/svg" xmlns:xlink="http://www.w3.org/1999/xlink" contentStyleType="text/css" height="1455px" preserveAspectRatio="none" style="width:1486px;height:1455px;background:#FFFFFF;" version="1.1" viewBox="0 0 1486 1455" width="1486px" zoomAndPan="magnify"><defs/><g><g id="elem_n1"><path d="M6,240.77 L6,326.4341 L519,326.4341 L519,250.77 L509,240.77 L6,240.77 " fill="#FEFFDD" style="stroke:#181818;stroke-width:0.5;"/><path d="M509,240.77 L509,250.77 L519,250.77 L509,240.77 " fill="#FEFFDD" style="stroke:#181818;stroke-width:1.0;"/><text fill="#000000" font-family="sans-serif" font-size="13" lengthAdjust="spacing" textLength="99" x="12" y="257.8369">Fonctions libres</text><text fill="#000000" font-family="sans-serif" font-size="13" lengthAdjust="spacing" textLength="156" x="12" y="272.9697">counterId(): unsigned int</text><text fill="#000000" font-family="sans-serif" font-size="13" lengthAdjust="spacing" textLength="492" x="12" y="288.1025">operator&lt;&lt;(os: std::ostream&amp;, squadron: const Squadron&amp;): std::ostream&amp;</text><text fill="#000000" font-family="sans-serif" font-size="13" lengthAdjust="spacing" textLength="359" x="12" y="303.2353">operator+(lhs: Ship&amp;, rhs: const Squadron&amp;): Squadron</text><text fill="#000000" font-family="sans-serif" font-size="13" lengthAdjust="spacing" textLength="353" x="12" y="318.3681">operator-(lhs: Ship&amp;, rhs: const Squadron&amp;): Squadron</text></g><!--class Dreadnought--><g id="elem_Dreadnought"><rect codeLine="8" fill="#F1F1F1" height="145.7813" id="Dreadnought" rx="2.5" ry="2.5" style="stroke:#181818;stroke-width:0.5;" width="271" x="219" y="1302.74"/><ellipse cx="304.25" cy="1318.74" fill="#ADD1B2" rx="11" ry="11" style="stroke:#181818;stroke-width:1.0;"/><path d="M307.2188,1324.3806 Q306.6406,1324.6775 306,1324.8181 Q305.3594,1324.9744 304.6563,1324.9744 Q302.1563,1324.9744 300.8281,1323.3338 Q299.5156,1321.6775 299.5156,1318.5525 Q299.5156,1315.4275 300.8281,1313.7713 Q302.1563,1312.115 304.6563,1312.115 Q305.3594,1312.115 306,1312.2713 Q306.6563,1312.4275 307.2188,1312.7244 L307.2188,1315.4431 Q306.5938,1314.865 306,1314.5994 Q305.4063,1314.3181 304.7813,1314.3181 Q303.4375,1314.3181 302.75,1315.3963 Q302.0625,1316.4588 302.0625,1318.5525 Q302.0625,1320.6463 302.75,1321.7244 Q303.4375,1322.7869 304.7813,1322.7869 Q305.4063,1322.7869 306,1322.5213 Q306.5938,1322.24 307.2188,1321.6619 L307.2188,1324.3806 Z " fill="#000000"/><text fill="#000000" font-family="sans-serif" font-size="14" lengthAdjust="spacing" textLength="92" x="324.75" y="1323.5867">Dreadnought</text><line style="stroke:#181818;stroke-width:0.5;" x1="220" x2="489" y1="1334.74" y2="1334.74"/><line style="stroke:#181818;stroke-width:0.5;" x1="220" x2="489" y1="1342.74" y2="1342.74"/><ellipse cx="230" cy="1356.3884" fill="#84BE84" rx="3" ry="3" style="stroke:#038048;stroke-width:1.0;"/><text fill="#000000" font-family="sans-serif" font-size="14" lengthAdjust="spacing" textLength="222" x="239" y="1359.7351">Dreadnought(load: long double)</text><ellipse cx="230" cy="1372.6853" fill="#84BE84" rx="3" ry="3" style="stroke:#038048;stroke-width:1.0;"/><text fill="#000000" font-family="sans-serif" font-size="14" lengthAdjust="spacing" textLength="232" x="239" y="1376.032">getCapacity_const() : long double</text><ellipse cx="230" cy="1388.9822" fill="#84BE84" rx="3" ry="3" style="stroke:#038048;stroke-width:1.0;"/><text fill="#000000" font-family="sans-serif" font-size="14" lengthAdjust="spacing" textLength="222" x="239" y="1392.3289">getWeight_const() : long double</text><rect fill="#F24D5C" height="6" style="stroke:#C82930;stroke-width:1.0;" width="6" x="227" y="1402.2791"/><text fill="#000000" font-family="sans-serif" font-size="14" lengthAdjust="spacing" textLength="200" x="239" y="1408.6257">getClass_const() : std::string</text><rect fill="#F24D5C" height="6" style="stroke:#C82930;stroke-width:1.0;" width="6" x="227" y="1418.5759"/><text fill="#000000" font-family="sans-serif" font-size="14" lengthAdjust="spacing" textLength="245" x="239" y="1424.9226">getNameModel_const() : std::string</text><rect fill="#F24D5C" height="6" style="stroke:#C82930;stroke-width:1.0;" width="6" x="227" y="1434.8728"/><text fill="#000000" font-family="sans-serif" font-size="14" lengthAdjust="spacing" textLength="223" x="239" y="1441.2195">getSpeed_const() : unsigned int</text></g><!--class Ship--><g id="elem_Ship"><rect codeLine="18" fill="#F1F1F1" height="210.9688" id="Ship" rx="2.5" ry="2.5" style="stroke:#181818;stroke-width:0.5;" width="602" x="539.5" y="744.5"/><ellipse cx="821.25" cy="760.5" fill="#A9DCDF" rx="11" ry="11" style="stroke:#181818;stroke-width:1.0;"/><path d="M821.3594,755.8438 L820.2031,760.9219 L822.5313,760.9219 L821.3594,755.8438 Z M819.875,753.6094 L822.8594,753.6094 L826.2188,766 L823.7656,766 L823,762.9375 L819.7188,762.9375 L818.9688,766 L816.5313,766 L819.875,753.6094 Z " fill="#000000"/><text fill="#000000" font-family="sans-serif" font-size="14" font-style="italic" lengthAdjust="spacing" textLength="30" x="841.75" y="765.3467">Ship</text><line style="stroke:#181818;stroke-width:0.5;" x1="540.5" x2="1140.5" y1="776.5" y2="776.5"/><rect fill="none" height="6" style="stroke:#C82930;stroke-width:1.0;" width="6" x="547.5" y="787.1484"/><text fill="#000000" font-family="sans-serif" font-size="14" lengthAdjust="spacing" textLength="263" x="559.5" y="793.4951">nickName : std::optional&lt;std::string&gt;</text><rect fill="none" height="6" style="stroke:#C82930;stroke-width:1.0;" width="6" x="547.5" y="803.4453"/><text fill="#000000" font-family="sans-serif" font-size="14" lengthAdjust="spacing" textLength="111" x="559.5" y="809.792">id : unsigned int</text><line style="stroke:#181818;stroke-width:0.5;" x1="540.5" x2="1140.5" y1="817.0938" y2="817.0938"/><ellipse cx="550.5" cy="830.7422" fill="#84BE84" rx="3" ry="3" style="stroke:#038048;stroke-width:1.0;"/><text fill="#000000" font-family="sans-serif" font-size="14" lengthAdjust="spacing" textLength="147" x="559.5" y="834.0889">Ship(id: unsigned int)</text><ellipse cx="550.5" cy="847.0391" fill="#84BE84" rx="3" ry="3" style="stroke:#038048;stroke-width:1.0;"/><text fill="#000000" font-family="sans-serif" font-size="14" lengthAdjust="spacing" textLength="52" x="559.5" y="850.3857">~Ship()</text><ellipse cx="550.5" cy="863.3359" fill="#84BE84" rx="3" ry="3" style="stroke:#038048;stroke-width:1.0;"/><text fill="#000000" font-family="sans-serif" font-size="14" lengthAdjust="spacing" textLength="576" x="559.5" y="866.6826">getConsommation_const(distance: long double, speed: unsigned int) : long double</text><ellipse cx="550.5" cy="879.6328" fill="#84BE84" rx="3" ry="3" style="stroke:#038048;stroke-width:1.0;"/><text fill="#000000" font-family="sans-serif" font-size="14" font-style="italic" lengthAdjust="spacing" textLength="256" x="559.5" y="882.9795">getTotalWeight_const() : long double</text><ellipse cx="550.5" cy="895.9297" fill="#84BE84" rx="3" ry="3" style="stroke:#038048;stroke-width:1.0;"/><text fill="#000000" font-family="sans-serif" font-size="14" lengthAdjust="spacing" textLength="408" x="559.5" y="899.2764">formatToStream_const(os: std::ostream&amp;) : std::ostream&amp;</text><rect fill="#F24D5C" height="6" style="stroke:#C82930;stroke-width:1.0;" width="6" x="547.5" y="909.2266"/><text fill="#000000" font-family="sans-serif" font-size="14" font-style="italic" lengthAdjust="spacing" textLength="205" x="559.5" y="915.5732">getModel_const() : std::string</text><ellipse cx="550.5" cy="928.5234" fill="#84BE84" rx="3" ry="3" style="stroke:#038048;stroke-width:1.0;"/><text fill="#000000" font-family="sans-serif" font-size="14" font-style="italic" lengthAdjust="spacing" textLength="223" x="559.5" y="931.8701">getSpeed_const() : unsigned int</text><ellipse cx="550.5" cy="944.8203" fill="#84BE84" rx="3" ry="3" style="stroke:#038048;stroke-width:1.0;"/><text fill="#000000" font-family="sans-serif" font-size="14" lengthAdjust="spacing" textLength="304" x="559.5" y="948.167">setNickname(nick: const std::string&amp;) : void</text></g><!--class ShipCargo--><g id="elem_ShipCargo"><rect codeLine="32" fill="#F1F1F1" height="227.2656" id="ShipCargo" rx="2.5" ry="2.5" style="stroke:#181818;stroke-width:0.5;" width="522" x="374.5" y="1015.47"/><ellipse cx="595.75" cy="1031.47" fill="#A9DCDF" rx="11" ry="11" style="stroke:#181818;stroke-width:1.0;"/><path d="M595.8594,1026.8138 L594.7031,1031.8919 L597.0313,1031.8919 L595.8594,1026.8138 Z M594.375,1024.5794 L597.3594,1024.5794 L600.7188,1036.97 L598.2656,1036.97 L597.5,1033.9075 L594.2188,1033.9075 L593.4688,1036.97 L591.0313,1036.97 L594.375,1024.5794 Z " fill="#000000"/><text fill="#000000" font-family="sans-serif" font-size="14" font-style="italic" lengthAdjust="spacing" textLength="71" x="616.25" y="1036.3167">ShipCargo</text><line style="stroke:#181818;stroke-width:0.5;" x1="375.5" x2="895.5" y1="1047.47" y2="1047.47"/><rect fill="none" height="6" style="stroke:#C82930;stroke-width:1.0;" width="6" x="382.5" y="1058.1184"/><text fill="#000000" font-family="sans-serif" font-size="14" lengthAdjust="spacing" textLength="124" x="394.5" y="1064.4651">load : long double</text><line style="stroke:#181818;stroke-width:0.5;" x1="375.5" x2="895.5" y1="1071.7669" y2="1071.7669"/><ellipse cx="385.5" cy="1085.4153" fill="#84BE84" rx="3" ry="3" style="stroke:#038048;stroke-width:1.0;"/><text fill="#000000" font-family="sans-serif" font-size="14" lengthAdjust="spacing" textLength="471" x="394.5" y="1088.762">ShipCargo(load: long double, id: unsigned int, capacity: long double)</text><ellipse cx="385.5" cy="1101.7122" fill="#84BE84" rx="3" ry="3" style="stroke:#038048;stroke-width:1.0;"/><text fill="#000000" font-family="sans-serif" font-size="14" lengthAdjust="spacing" textLength="93" x="394.5" y="1105.0589">~ShipCargo()</text><rect fill="#F24D5C" height="6" style="stroke:#C82930;stroke-width:1.0;" width="6" x="382.5" y="1115.0091"/><text fill="#000000" font-family="sans-serif" font-size="14" font-style="italic" lengthAdjust="spacing" textLength="232" x="394.5" y="1121.3557">getCapacity_const() : long double</text><ellipse cx="385.5" cy="1134.3059" fill="#84BE84" rx="3" ry="3" style="stroke:#038048;stroke-width:1.0;"/><text fill="#000000" font-family="sans-serif" font-size="14" lengthAdjust="spacing" textLength="256" x="394.5" y="1137.6526">getTotalWeight_const() : long double</text><rect fill="#F24D5C" height="6" style="stroke:#C82930;stroke-width:1.0;" width="6" x="382.5" y="1147.6028"/><text fill="#000000" font-family="sans-serif" font-size="14" font-style="italic" lengthAdjust="spacing" textLength="222" x="394.5" y="1153.9495">getWeight_const() : long double</text><rect fill="#F24D5C" height="6" style="stroke:#C82930;stroke-width:1.0;" width="6" x="382.5" y="1163.8997"/><text fill="#000000" font-family="sans-serif" font-size="14" lengthAdjust="spacing" text-decoration="underline" textLength="496" x="394.5" y="1170.2464">validateLoad(loadTest: long double, capacity: long double) : long double</text><ellipse cx="385.5" cy="1183.1966" fill="#84BE84" rx="3" ry="3" style="stroke:#038048;stroke-width:1.0;"/><text fill="#000000" font-family="sans-serif" font-size="14" lengthAdjust="spacing" textLength="408" x="394.5" y="1186.5432">formatToStream_const(os: std::ostream&amp;) : std::ostream&amp;</text><rect fill="#F24D5C" height="6" style="stroke:#C82930;stroke-width:1.0;" width="6" x="382.5" y="1196.4934"/><text fill="#000000" font-family="sans-serif" font-size="14" font-style="italic" lengthAdjust="spacing" textLength="200" x="394.5" y="1202.8401">getClass_const() : std::string</text><rect fill="#F24D5C" height="6" style="stroke:#C82930;stroke-width:1.0;" width="6" x="382.5" y="1212.7903"/><text fill="#000000" font-family="sans-serif" font-size="14" lengthAdjust="spacing" textLength="205" x="394.5" y="1219.137">getModel_const() : std::string</text><rect fill="#F24D5C" height="6" style="stroke:#C82930;stroke-width:1.0;" width="6" x="382.5" y="1229.0872"/><text fill="#000000" font-family="sans-serif" font-size="14" font-style="italic" lengthAdjust="spacing" textLength="245" x="394.5" y="1235.4339">getNameModel_const() : std::string</text></g><!--class Shuttle--><g id="elem_Shuttle"><rect codeLine="47" fill="#F1F1F1" height="145.7813" id="Shuttle" rx="2.5" ry="2.5" style="stroke:#181818;stroke-width:0.5;" width="271" x="525" y="1302.74"/><ellipse cx="631.75" cy="1318.74" fill="#ADD1B2" rx="11" ry="11" style="stroke:#181818;stroke-width:1.0;"/><path d="M634.7188,1324.3806 Q634.1406,1324.6775 633.5,1324.8181 Q632.8594,1324.9744 632.1563,1324.9744 Q629.6563,1324.9744 628.3281,1323.3338 Q627.0156,1321.6775 627.0156,1318.5525 Q627.0156,1315.4275 628.3281,1313.7713 Q629.6563,1312.115 632.1563,1312.115 Q632.8594,1312.115 633.5,1312.2713 Q634.1563,1312.4275 634.7188,1312.7244 L634.7188,1315.4431 Q634.0938,1314.865 633.5,1314.5994 Q632.9063,1314.3181 632.2813,1314.3181 Q630.9375,1314.3181 630.25,1315.3963 Q629.5625,1316.4588 629.5625,1318.5525 Q629.5625,1320.6463 630.25,1321.7244 Q630.9375,1322.7869 632.2813,1322.7869 Q632.9063,1322.7869 633.5,1322.5213 Q634.0938,1322.24 634.7188,1321.6619 L634.7188,1324.3806 Z " fill="#000000"/><text fill="#000000" font-family="sans-serif" font-size="14" lengthAdjust="spacing" textLength="49" x="652.25" y="1323.5867">Shuttle</text><line style="stroke:#181818;stroke-width:0.5;" x1="526" x2="795" y1="1334.74" y2="1334.74"/><line style="stroke:#181818;stroke-width:0.5;" x1="526" x2="795" y1="1342.74" y2="1342.74"/><ellipse cx="536" cy="1356.3884" fill="#84BE84" rx="3" ry="3" style="stroke:#038048;stroke-width:1.0;"/><text fill="#000000" font-family="sans-serif" font-size="14" lengthAdjust="spacing" textLength="179" x="545" y="1359.7351">Shuttle(load: long double)</text><rect fill="#F24D5C" height="6" style="stroke:#C82930;stroke-width:1.0;" width="6" x="533" y="1369.6853"/><text fill="#000000" font-family="sans-serif" font-size="14" lengthAdjust="spacing" textLength="232" x="545" y="1376.032">getCapacity_const() : long double</text><ellipse cx="536" cy="1388.9822" fill="#84BE84" rx="3" ry="3" style="stroke:#038048;stroke-width:1.0;"/><text fill="#000000" font-family="sans-serif" font-size="14" lengthAdjust="spacing" textLength="222" x="545" y="1392.3289">getWeight_const() : long double</text><rect fill="#F24D5C" height="6" style="stroke:#C82930;stroke-width:1.0;" width="6" x="533" y="1402.2791"/><text fill="#000000" font-family="sans-serif" font-size="14" lengthAdjust="spacing" textLength="200" x="545" y="1408.6257">getClass_const() : std::string</text><rect fill="#F24D5C" height="6" style="stroke:#C82930;stroke-width:1.0;" width="6" x="533" y="1418.5759"/><text fill="#000000" font-family="sans-serif" font-size="14" lengthAdjust="spacing" textLength="245" x="545" y="1424.9226">getNameModel_const() : std::string</text><ellipse cx="536" cy="1437.8728" fill="#84BE84" rx="3" ry="3" style="stroke:#038048;stroke-width:1.0;"/><text fill="#000000" font-family="sans-serif" font-size="14" lengthAdjust="spacing" textLength="223" x="545" y="1441.2195">getSpeed_const() : unsigned int</text></g><!--class Squadron--><g id="elem_Squadron"><rect codeLine="57" fill="#F1F1F1" height="553.2031" id="Squadron" rx="2.5" ry="2.5" style="stroke:#181818;stroke-width:0.5;" width="573" x="554" y="7"/><ellipse cx="802.75" cy="23" fill="#ADD1B2" rx="11" ry="11" style="stroke:#181818;stroke-width:1.0;"/><path d="M805.7188,28.6406 Q805.1406,28.9375 804.5,29.0781 Q803.8594,29.2344 803.1563,29.2344 Q800.6563,29.2344 799.3281,27.5938 Q798.0156,25.9375 798.0156,22.8125 Q798.0156,19.6875 799.3281,18.0313 Q800.6563,16.375 803.1563,16.375 Q803.8594,16.375 804.5,16.5313 Q805.1563,16.6875 805.7188,16.9844 L805.7188,19.7031 Q805.0938,19.125 804.5,18.8594 Q803.9063,18.5781 803.2813,18.5781 Q801.9375,18.5781 801.25,19.6563 Q800.5625,20.7188 800.5625,22.8125 Q800.5625,24.9063 801.25,25.9844 Q801.9375,27.0469 803.2813,27.0469 Q803.9063,27.0469 804.5,26.7813 Q805.0938,26.5 805.7188,25.9219 L805.7188,28.6406 Z " fill="#000000"/><text fill="#000000" font-family="sans-serif" font-size="14" lengthAdjust="spacing" textLength="67" x="823.25" y="27.8467">Squadron</text><line style="stroke:#181818;stroke-width:0.5;" x1="555" x2="1126" y1="39" y2="39"/><rect fill="none" height="6" style="stroke:#C82930;stroke-width:1.0;" width="6" x="562" y="49.6484"/><text fill="#000000" font-family="sans-serif" font-size="14" lengthAdjust="spacing" textLength="123" x="574" y="55.9951">name : std::string</text><line style="stroke:#181818;stroke-width:0.5;" x1="555" x2="1126" y1="63.2969" y2="63.2969"/><ellipse cx="565" cy="76.9453" fill="#84BE84" rx="3" ry="3" style="stroke:#038048;stroke-width:1.0;"/><text fill="#000000" font-family="sans-serif" font-size="14" lengthAdjust="spacing" textLength="196" x="574" y="80.292">Squadron(name: std::string)</text><ellipse cx="565" cy="93.2422" fill="#84BE84" rx="3" ry="3" style="stroke:#038048;stroke-width:1.0;"/><text fill="#000000" font-family="sans-serif" font-size="14" lengthAdjust="spacing" textLength="245" x="574" y="96.5889">Squadron(other: const Squadron&amp;)</text><ellipse cx="565" cy="109.5391" fill="#84BE84" rx="3" ry="3" style="stroke:#038048;stroke-width:1.0;"/><text fill="#000000" font-family="sans-serif" font-size="14" lengthAdjust="spacing" textLength="214" x="574" y="112.8857">Squadron(other: Squadron&amp;&amp;)</text><ellipse cx="565" cy="125.8359" fill="#84BE84" rx="3" ry="3" style="stroke:#038048;stroke-width:1.0;"/><text fill="#000000" font-family="sans-serif" font-size="14" lengthAdjust="spacing" textLength="89" x="574" y="129.1826">~Squadron()</text><ellipse cx="565" cy="142.1328" fill="#84BE84" rx="3" ry="3" style="stroke:#038048;stroke-width:1.0;"/><text fill="#000000" font-family="sans-serif" font-size="14" lengthAdjust="spacing" textLength="250" x="574" y="145.4795">getShip_const(index: size_t) : Ship&amp;</text><ellipse cx="565" cy="158.4297" fill="#84BE84" rx="3" ry="3" style="stroke:#038048;stroke-width:1.0;"/><text fill="#000000" font-family="sans-serif" font-size="14" lengthAdjust="spacing" textLength="280" x="574" y="161.7764">operator+_const(rhs: Ship&amp;) : Squadron</text><ellipse cx="565" cy="174.7266" fill="#84BE84" rx="3" ry="3" style="stroke:#038048;stroke-width:1.0;"/><text fill="#000000" font-family="sans-serif" font-size="14" lengthAdjust="spacing" textLength="393" x="574" y="178.0732">operator+(lhs: Ship&amp;, rhs: const Squadron&amp;) : Squadron</text><ellipse cx="565" cy="191.0234" fill="#84BE84" rx="3" ry="3" style="stroke:#038048;stroke-width:1.0;"/><text fill="#000000" font-family="sans-serif" font-size="14" lengthAdjust="spacing" textLength="273" x="574" y="194.3701">operator-_const(rhs: Ship&amp;) : Squadron</text><ellipse cx="565" cy="207.3203" fill="#84BE84" rx="3" ry="3" style="stroke:#038048;stroke-width:1.0;"/><text fill="#000000" font-family="sans-serif" font-size="14" lengthAdjust="spacing" textLength="386" x="574" y="210.667">operator-(lhs: Ship&amp;, rhs: const Squadron&amp;) : Squadron</text><ellipse cx="565" cy="223.6172" fill="#84BE84" rx="3" ry="3" style="stroke:#038048;stroke-width:1.0;"/><text fill="#000000" font-family="sans-serif" font-size="14" lengthAdjust="spacing" textLength="285" x="574" y="226.9639">addShipToThis(ship: Ship&amp;) : Squadron&amp;</text><ellipse cx="565" cy="239.9141" fill="#84BE84" rx="3" ry="3" style="stroke:#038048;stroke-width:1.0;"/><text fill="#000000" font-family="sans-serif" font-size="14" lengthAdjust="spacing" textLength="265" x="574" y="243.2607">operator+=(ship: Ship&amp;) : Squadron&amp;</text><ellipse cx="565" cy="256.2109" fill="#84BE84" rx="3" ry="3" style="stroke:#038048;stroke-width:1.0;"/><text fill="#000000" font-family="sans-serif" font-size="14" lengthAdjust="spacing" textLength="258" x="574" y="259.5576">operator-=(ship: Ship&amp;) : Squadron&amp;</text><ellipse cx="565" cy="272.5078" fill="#84BE84" rx="3" ry="3" style="stroke:#038048;stroke-width:1.0;"/><text fill="#000000" font-family="sans-serif" font-size="14" lengthAdjust="spacing" textLength="341" x="574" y="275.8545">operator=(other: const Squadron&amp;) : Squadron&amp;</text><ellipse cx="565" cy="288.8047" fill="#84BE84" rx="3" ry="3" style="stroke:#038048;stroke-width:1.0;"/><text fill="#000000" font-family="sans-serif" font-size="14" lengthAdjust="spacing" textLength="310" x="574" y="292.1514">operator=(other: Squadron&amp;&amp;) : Squadron&amp;</text><ellipse cx="565" cy="305.1016" fill="#84BE84" rx="3" ry="3" style="stroke:#038048;stroke-width:1.0;"/><text fill="#000000" font-family="sans-serif" font-size="14" lengthAdjust="spacing" textLength="328" x="574" y="308.4482">removeShipFromThis(ship: Ship&amp;) : Squadron&amp;</text><ellipse cx="565" cy="321.3984" fill="#84BE84" rx="3" ry="3" style="stroke:#038048;stroke-width:1.0;"/><text fill="#000000" font-family="sans-serif" font-size="14" lengthAdjust="spacing" textLength="233" x="574" y="324.7451">addShip(ship: Ship&amp;) : Squadron*</text><ellipse cx="565" cy="337.6953" fill="#84BE84" rx="3" ry="3" style="stroke:#038048;stroke-width:1.0;"/><text fill="#000000" font-family="sans-serif" font-size="14" lengthAdjust="spacing" textLength="259" x="574" y="341.042">removeShip(ship: Ship&amp;) : Squadron*</text><rect fill="#F24D5C" height="6" style="stroke:#C82930;stroke-width:1.0;" width="6" x="562" y="350.9922"/><text fill="#000000" font-family="sans-serif" font-size="14" lengthAdjust="spacing" textLength="355" x="574" y="357.3389">belongToSquadron_const(ship: const Ship&amp;) : bool</text><ellipse cx="565" cy="370.2891" fill="#84BE84" rx="3" ry="3" style="stroke:#038048;stroke-width:1.0;"/><text fill="#000000" font-family="sans-serif" font-size="14" lengthAdjust="spacing" textLength="153" x="574" y="373.6357">isEmpty_const() : bool</text><ellipse cx="565" cy="386.5859" fill="#84BE84" rx="3" ry="3" style="stroke:#038048;stroke-width:1.0;"/><text fill="#000000" font-family="sans-serif" font-size="14" lengthAdjust="spacing" textLength="540" x="574" y="389.9326">fuelConsRide_const(speed: unsigned int, distance: long double) : long double</text><rect fill="#F24D5C" height="6" style="stroke:#C82930;stroke-width:1.0;" width="6" x="562" y="399.8828"/><text fill="#000000" font-family="sans-serif" font-size="14" lengthAdjust="spacing" textLength="256" x="574" y="406.2295">getTotalWeight_const() : long double</text><ellipse cx="565" cy="419.1797" fill="#84BE84" rx="3" ry="3" style="stroke:#038048;stroke-width:1.0;"/><text fill="#000000" font-family="sans-serif" font-size="14" lengthAdjust="spacing" textLength="547" x="574" y="422.5264">operator&lt;&lt;(os: std::ostream&amp;, squadron: const Squadron&amp;) : std :: ostream&amp;</text><ellipse cx="565" cy="435.4766" fill="#84BE84" rx="3" ry="3" style="stroke:#038048;stroke-width:1.0;"/><text fill="#000000" font-family="sans-serif" font-size="14" lengthAdjust="spacing" textLength="408" x="574" y="438.8232">formatToStream_const(os: std::ostream&amp;) : std::ostream&amp;</text><rect fill="#F24D5C" height="6" style="stroke:#C82930;stroke-width:1.0;" width="6" x="562" y="448.7734"/><text fill="#000000" font-family="sans-serif" font-size="14" lengthAdjust="spacing" textLength="250" x="574" y="455.1201">getMaxSpeed_const() : unsigned int</text><rect fill="#F24D5C" height="6" style="stroke:#C82930;stroke-width:1.0;" width="6" x="562" y="465.0703"/><text fill="#000000" font-family="sans-serif" font-size="14" lengthAdjust="spacing" textLength="290" x="574" y="471.417">copyShips(other: const Squadron&amp;) : void</text><rect fill="#F24D5C" height="6" style="stroke:#C82930;stroke-width:1.0;" width="6" x="562" y="481.3672"/><text fill="#000000" font-family="sans-serif" font-size="14" lengthAdjust="spacing" textLength="140" x="574" y="487.7139">deleteNodes() : void</text><ellipse cx="565" cy="500.6641" fill="#84BE84" rx="3" ry="3" style="stroke:#038048;stroke-width:1.0;"/><text fill="#000000" font-family="sans-serif" font-size="14" lengthAdjust="spacing" textLength="162" x="574" y="504.0107">dethroneLeader() : void</text><ellipse cx="565" cy="516.9609" fill="#84BE84" rx="3" ry="3" style="stroke:#038048;stroke-width:1.0;"/><text fill="#000000" font-family="sans-serif" font-size="14" lengthAdjust="spacing" textLength="244" x="574" y="520.3076">exchange(other: Squadron&amp;) : void</text><rect fill="#F24D5C" height="6" style="stroke:#C82930;stroke-width:1.0;" width="6" x="562" y="530.2578"/><text fill="#000000" font-family="sans-serif" font-size="14" lengthAdjust="spacing" textLength="71" x="574" y="536.6045">init() : void</text><ellipse cx="565" cy="549.5547" fill="#84BE84" rx="3" ry="3" style="stroke:#038048;stroke-width:1.0;"/><text fill="#000000" font-family="sans-serif" font-size="14" lengthAdjust="spacing" textLength="214" x="574" y="552.9014">setLeader(leader: Ship&amp;) : void</text></g><!--class TIE--><g id="elem_TIE"><rect codeLine="92" fill="#F1F1F1" height="113.1875" id="TIE" rx="2.5" ry="2.5" style="stroke:#181818;stroke-width:0.5;" width="282" x="880.5" y="1319.04"/><ellipse cx="1006.75" cy="1335.04" fill="#ADD1B2" rx="11" ry="11" style="stroke:#181818;stroke-width:1.0;"/><path d="M1009.7188,1340.6806 Q1009.1406,1340.9775 1008.5,1341.1181 Q1007.8594,1341.2744 1007.1563,1341.2744 Q1004.6563,1341.2744 1003.3281,1339.6338 Q1002.0156,1337.9775 1002.0156,1334.8525 Q1002.0156,1331.7275 1003.3281,1330.0713 Q1004.6563,1328.415 1007.1563,1328.415 Q1007.8594,1328.415 1008.5,1328.5713 Q1009.1563,1328.7275 1009.7188,1329.0244 L1009.7188,1331.7431 Q1009.0938,1331.165 1008.5,1330.8994 Q1007.9063,1330.6181 1007.2813,1330.6181 Q1005.9375,1330.6181 1005.25,1331.6963 Q1004.5625,1332.7588 1004.5625,1334.8525 Q1004.5625,1336.9463 1005.25,1338.0244 Q1005.9375,1339.0869 1007.2813,1339.0869 Q1007.9063,1339.0869 1008.5,1338.8213 Q1009.0938,1338.54 1009.7188,1337.9619 L1009.7188,1340.6806 Z " fill="#000000"/><text fill="#000000" font-family="sans-serif" font-size="14" lengthAdjust="spacing" textLength="21" x="1027.25" y="1339.8867">TIE</text><line style="stroke:#181818;stroke-width:0.5;" x1="881.5" x2="1161.5" y1="1351.04" y2="1351.04"/><line style="stroke:#181818;stroke-width:0.5;" x1="881.5" x2="1161.5" y1="1359.04" y2="1359.04"/><ellipse cx="891.5" cy="1372.6884" fill="#84BE84" rx="3" ry="3" style="stroke:#038048;stroke-width:1.0;"/><text fill="#000000" font-family="sans-serif" font-size="14" lengthAdjust="spacing" textLength="31" x="900.5" y="1376.0351">TIE()</text><ellipse cx="891.5" cy="1388.9853" fill="#84BE84" rx="3" ry="3" style="stroke:#038048;stroke-width:1.0;"/><text fill="#000000" font-family="sans-serif" font-size="14" lengthAdjust="spacing" textLength="256" x="900.5" y="1392.332">getTotalWeight_const() : long double</text><rect fill="#F24D5C" height="6" style="stroke:#C82930;stroke-width:1.0;" width="6" x="888.5" y="1402.2822"/><text fill="#000000" font-family="sans-serif" font-size="14" lengthAdjust="spacing" textLength="191" x="900.5" y="1408.6289">typeTIE_const() : std::string</text><ellipse cx="891.5" cy="1421.5791" fill="#84BE84" rx="3" ry="3" style="stroke:#038048;stroke-width:1.0;"/><text fill="#000000" font-family="sans-serif" font-size="14" lengthAdjust="spacing" textLength="223" x="900.5" y="1424.9257">getSpeed_const() : unsigned int</text></g><!--class TIEInterceptor--><g id="elem_TIEInterceptor"><rect codeLine="100" fill="#F1F1F1" height="113.1875" id="TIEInterceptor" rx="2.5" ry="2.5" style="stroke:#181818;stroke-width:0.5;" width="282" x="1197.5" y="1319.04"/><ellipse cx="1285.75" cy="1335.04" fill="#ADD1B2" rx="11" ry="11" style="stroke:#181818;stroke-width:1.0;"/><path d="M1288.7188,1340.6806 Q1288.1406,1340.9775 1287.5,1341.1181 Q1286.8594,1341.2744 1286.1563,1341.2744 Q1283.6563,1341.2744 1282.3281,1339.6338 Q1281.0156,1337.9775 1281.0156,1334.8525 Q1281.0156,1331.7275 1282.3281,1330.0713 Q1283.6563,1328.415 1286.1563,1328.415 Q1286.8594,1328.415 1287.5,1328.5713 Q1288.1563,1328.7275 1288.7188,1329.0244 L1288.7188,1331.7431 Q1288.0938,1331.165 1287.5,1330.8994 Q1286.9063,1330.6181 1286.2813,1330.6181 Q1284.9375,1330.6181 1284.25,1331.6963 Q1283.5625,1332.7588 1283.5625,1334.8525 Q1283.5625,1336.9463 1284.25,1338.0244 Q1284.9375,1339.0869 1286.2813,1339.0869 Q1286.9063,1339.0869 1287.5,1338.8213 Q1288.0938,1338.54 1288.7188,1337.9619 L1288.7188,1340.6806 Z " fill="#000000"/><text fill="#000000" font-family="sans-serif" font-size="14" lengthAdjust="spacing" textLength="97" x="1306.25" y="1339.8867">TIEInterceptor</text><line style="stroke:#181818;stroke-width:0.5;" x1="1198.5" x2="1478.5" y1="1351.04" y2="1351.04"/><line style="stroke:#181818;stroke-width:0.5;" x1="1198.5" x2="1478.5" y1="1359.04" y2="1359.04"/><ellipse cx="1208.5" cy="1372.6884" fill="#84BE84" rx="3" ry="3" style="stroke:#038048;stroke-width:1.0;"/><text fill="#000000" font-family="sans-serif" font-size="14" lengthAdjust="spacing" textLength="107" x="1217.5" y="1376.0351">TIEInterceptor()</text><ellipse cx="1208.5" cy="1388.9853" fill="#84BE84" rx="3" ry="3" style="stroke:#038048;stroke-width:1.0;"/><text fill="#000000" font-family="sans-serif" font-size="14" lengthAdjust="spacing" textLength="256" x="1217.5" y="1392.332">getTotalWeight_const() : long double</text><rect fill="#F24D5C" height="6" style="stroke:#C82930;stroke-width:1.0;" width="6" x="1205.5" y="1402.2822"/><text fill="#000000" font-family="sans-serif" font-size="14" lengthAdjust="spacing" textLength="191" x="1217.5" y="1408.6289">typeTIE_const() : std::string</text><ellipse cx="1208.5" cy="1421.5791" fill="#84BE84" rx="3" ry="3" style="stroke:#038048;stroke-width:1.0;"/><text fill="#000000" font-family="sans-serif" font-size="14" lengthAdjust="spacing" textLength="223" x="1217.5" y="1424.9257">getSpeed_const() : unsigned int</text></g><!--class TIEModel--><g id="elem_TIEModel"><rect codeLine="108" fill="#F1F1F1" height="113.1875" id="TIEModel" rx="2.5" ry="2.5" style="stroke:#181818;stroke-width:0.5;" width="231" x="931" y="1072.51"/><ellipse cx="1010.75" cy="1088.51" fill="#A9DCDF" rx="11" ry="11" style="stroke:#181818;stroke-width:1.0;"/><path d="M1010.8594,1083.8538 L1009.7031,1088.9319 L1012.0313,1088.9319 L1010.8594,1083.8538 Z M1009.375,1081.6194 L1012.3594,1081.6194 L1015.7188,1094.01 L1013.2656,1094.01 L1012.5,1090.9475 L1009.2188,1090.9475 L1008.4688,1094.01 L1006.0313,1094.01 L1009.375,1081.6194 Z " fill="#000000"/><text fill="#000000" font-family="sans-serif" font-size="14" font-style="italic" lengthAdjust="spacing" textLength="63" x="1031.25" y="1093.3567">TIEModel</text><line style="stroke:#181818;stroke-width:0.5;" x1="932" x2="1161" y1="1104.51" y2="1104.51"/><line style="stroke:#181818;stroke-width:0.5;" x1="932" x2="1161" y1="1112.51" y2="1112.51"/><ellipse cx="942" cy="1126.1584" fill="#84BE84" rx="3" ry="3" style="stroke:#038048;stroke-width:1.0;"/><text fill="#000000" font-family="sans-serif" font-size="14" lengthAdjust="spacing" textLength="180" x="951" y="1129.5051">TIEModel(id: unsigned int)</text><ellipse cx="942" cy="1142.4553" fill="#84BE84" rx="3" ry="3" style="stroke:#038048;stroke-width:1.0;"/><text fill="#000000" font-family="sans-serif" font-size="14" lengthAdjust="spacing" textLength="85" x="951" y="1145.802">~TIEModel()</text><rect fill="#F24D5C" height="6" style="stroke:#C82930;stroke-width:1.0;" width="6" x="939" y="1155.7522"/><text fill="#000000" font-family="sans-serif" font-size="14" lengthAdjust="spacing" textLength="205" x="951" y="1162.0989">getModel_const() : std::string</text><rect fill="#F24D5C" height="6" style="stroke:#C82930;stroke-width:1.0;" width="6" x="939" y="1172.0491"/><text fill="#000000" font-family="sans-serif" font-size="14" font-style="italic" lengthAdjust="spacing" textLength="191" x="951" y="1178.3957">typeTIE_const() : std::string</text></g><!--class Squadron::Node--><g id="elem_Squadron::Node"><rect codeLine="116" fill="#F1F1F1" height="64.2969" id="Squadron::Node" rx="2.5" ry="2.5" style="stroke:#181818;stroke-width:0.5;" width="146" x="767.5" y="620.21"/><ellipse cx="782.5" cy="636.21" fill="#ADD1B2" rx="11" ry="11" style="stroke:#181818;stroke-width:1.0;"/><path d="M785.4688,641.8506 Q784.8906,642.1475 784.25,642.2881 Q783.6094,642.4444 782.9063,642.4444 Q780.4063,642.4444 779.0781,640.8038 Q777.7656,639.1475 777.7656,636.0225 Q777.7656,632.8975 779.0781,631.2413 Q780.4063,629.585 782.9063,629.585 Q783.6094,629.585 784.25,629.7413 Q784.9063,629.8975 785.4688,630.1944 L785.4688,632.9131 Q784.8438,632.335 784.25,632.0694 Q783.6563,631.7881 783.0313,631.7881 Q781.6875,631.7881 781,632.8663 Q780.3125,633.9288 780.3125,636.0225 Q780.3125,638.1163 781,639.1944 Q781.6875,640.2569 783.0313,640.2569 Q783.6563,640.2569 784.25,639.9913 Q784.8438,639.71 785.4688,639.1319 L785.4688,641.8506 Z " fill="#000000"/><text fill="#000000" font-family="sans-serif" font-size="14" lengthAdjust="spacing" textLength="114" x="796.5" y="641.0567">Squadron::Node</text><line style="stroke:#181818;stroke-width:0.5;" x1="768.5" x2="912.5" y1="652.21" y2="652.21"/><ellipse cx="778.5" cy="665.8584" fill="none" rx="3" ry="3" style="stroke:#038048;stroke-width:1.0;"/><text fill="#000000" font-family="sans-serif" font-size="14" lengthAdjust="spacing" textLength="79" x="787.5" y="669.2051">ship : Ship*</text><line style="stroke:#181818;stroke-width:0.5;" x1="768.5" x2="912.5" y1="676.5069" y2="676.5069"/></g><!--reverse link Ship to ShipCargo--><g id="link_Ship_ShipCargo"><path codeLine="126" d="M752.2966,970.2219 C737.8966,989.6919 733.5,995.63 718.93,1015.33 " fill="none" id="Ship-backto-ShipCargo" style="stroke:#181818;stroke-width:1.0;"/><polygon fill="none" points="763,955.75,747.4726,966.6541,757.1205,973.7897,763,955.75" style="stroke:#181818;stroke-width:1.0;"/></g><!--reverse link Ship to TIEModel--><g id="link_Ship_TIEModel"><path codeLine="129" d="M929.1185,970.1959 C958.5185,1009.7459 980.08,1038.75 1004.89,1072.14 " fill="none" id="Ship-backto-TIEModel" style="stroke:#181818;stroke-width:1.0;"/><polygon fill="none" points="918.38,955.75,924.3032,973.7754,933.9338,966.6164,918.38,955.75" style="stroke:#181818;stroke-width:1.0;"/></g><!--reverse link ShipCargo to Dreadnought--><g id="link_ShipCargo_Dreadnought"><path codeLine="132" d="M492.1128,1254.8777 C468.9628,1275.0277 459,1283.7 437.6,1302.31 " fill="none" id="ShipCargo-backto-Dreadnought" style="stroke:#181818;stroke-width:1.0;"/><polygon fill="none" points="505.69,1243.06,488.1735,1250.352,496.052,1259.4035,505.69,1243.06" style="stroke:#181818;stroke-width:1.0;"/></g><!--reverse link ShipCargo to Shuttle--><g id="link_ShipCargo_Shuttle"><path codeLine="135" d="M648.8807,1260.9667 C650.9407,1281.1167 651.2,1283.7 653.11,1302.31 " fill="none" id="ShipCargo-backto-Shuttle" style="stroke:#181818;stroke-width:1.0;"/><polygon fill="none" points="647.05,1243.06,642.9118,1261.5769,654.8495,1260.3564,647.05,1243.06" style="stroke:#181818;stroke-width:1.0;"/></g><!--reverse link TIEModel to TIE--><g id="link_TIEModel_TIE"><path codeLine="138" d="M1038.9666,1203.8064 C1034.8966,1243.5564 1031.29,1278.86 1027.22,1318.65 " fill="none" id="TIEModel-backto-TIE" style="stroke:#181818;stroke-width:1.0;"/><polygon fill="none" points="1040.8,1185.9,1032.9978,1203.1952,1044.9354,1204.4175,1040.8,1185.9" style="stroke:#181818;stroke-width:1.0;"/></g><!--reverse link TIEModel to TIEInterceptor--><g id="link_TIEModel_TIEInterceptor"><path codeLine="141" d="M1126.9205,1197.4562 C1174.3905,1237.2062 1224.14,1278.86 1271.66,1318.65 " fill="none" id="TIEModel-backto-TIEInterceptor" style="stroke:#181818;stroke-width:1.0;"/><polygon fill="none" points="1113.12,1185.9,1123.0685,1202.0564,1130.7726,1192.856,1113.12,1185.9" style="stroke:#181818;stroke-width:1.0;"/></g><!--reverse link Squadron::Node to Ship--><g id="link_Squadron::Node_Ship"><path codeLine="149" d="M840.5,696.79 C840.5,713.31 840.5,722.62 840.5,744.39 " fill="none" id="Squadron::Node-backto-Ship" style="stroke:#181818;stroke-width:1.0;"/><polygon fill="none" points="840.5,684.79,836.5,690.79,840.5,696.79,844.5,690.79,840.5,684.79" style="stroke:#181818;stroke-width:1.0;"/><text fill="#000000" font-family="sans-serif" font-size="13" lengthAdjust="spacing" textLength="8" x="832.2188" y="733.5096">1</text></g><!--reverse link Squadron to Squadron::Node--><g id="link_Squadron_Squadron::Node"><path codeLine="158" d="M840.5,576.7 C840.5,599.9 840.5,604.42 840.5,620.04 " fill="none" id="Squadron-backto-Squadron::Node" style="stroke:#181818;stroke-width:1.0;"/><ellipse cx="840.5" cy="568.7" fill="#FFFFFF" rx="8" ry="8" style="stroke:#181818;stroke-width:1.0;"/><line style="stroke:#181818;stroke-width:1.0;" x1="840.5" x2="840.5" y1="576.7" y2="560.7"/><line style="stroke:#181818;stroke-width:1.0;" x1="832.5" x2="848.5" y1="568.7" y2="568.7"/></g><!--SRC=[pLTTJzim57sclyBg0wIq4U8rAfCc1b8bngHHQIz8o8qlgRVKpc8NmHZyzbqxJkeqQHEsQLfVcjZ7n_TStmz7I0raU2b5hBaKYgHyaOEw5R5S2mtvZ0MZYAo5uea0HhZGjq9ca5Cjy-aqa2eYIhCeaahdG5U74wA-hodBfOX8Z7oQtBZtmz4MT4Cq3j8b4jqiUOO4kNbkhYsVDyl2jomR4gg8E1sOtyaH-RJu2h5MvEXaC8XJgXJvW4On8TV9KfFdmS7OUmzIILb4KYaImkHwaS880GdeSvhHcEkdExjlC28rK87v0XmfTY52msBszm3MI-WaBf82S4rNy54oIFU1RZ80vW7yCnkye6gwG3YDDIdq6hTPeUOXuAo-mWXyjJEbL2IMgnKrKU9sOLnfAcAeIS80C8PiiJKSyrnQyqAGV2urJJiS9NZypJYYr2upOmfDfvudtY7plSpHohcyiL7cw1fnMhcm7C0TwZRjTVYM_NjzVn1orXWRApnML2HGKM2abR7hRMEDV92SxJg-SvediZf3-zOCrGdPFji9YLtSDcBwTKCqQdYaJxJtESawQmVOw6aoOE1f7h-G1vfoHZLS8SfAduFIM_BRnJQC_rjnqvdD-pEvJjQL-IOmodXOQvs2YmRxt5gsml-eR8txb2qdpvNnGfzx2Kpsr3X7_gpKIyYRFQ45KaqU5abGJhlQPvB2cSW5WqVSal-0ErlMRFT1MDNB732lMfD5EKOVsDszsXU6VNS8txe3PSo0vtA-v2fG-DYoGKtiMHzKs0jrjkkykl3UuMr1SrZ91p2xNkPorINAgTy5EQuHxa652p2vWfN4ZRdpAbOuTUMwXPGf4dDriSfg2UacxjUGcjRxcJCeUPhzTK9QUt5hslQeqEFVlU4L2KwYY6pAunyKLk6r-re5fOyT7JUMsPFniTeJLBQp7eHOdq33DTOf5Mo6nmpq4f5mXRT0oFqPU8oNL2JGY3-Fb0kk_JNOxHrHQl-yoAaQV57evhCBM-Fmlom_VNggVie0b_o5IeiiCtFpZo7322XjyOR-jLbR5n-aiqsbjCo-jDzVgzdH6pllVhERNIcAJFnOYqoMkxPmR975zyPCOAnmcw8aXzHUemsq-0AnT_7fpp3SNEi6_cWfn0qMzpuxutsbD2VTFG0dAgULT6rZtXbNThzFaXmIQswRtNNzCWo7fqEhOL0nNEED3Cz4UXzSLJCV6oDh7By0]--></g></svg>